<svg width="29" height="29" viewBox="0 0 29 29" fill="none" xmlns="http://www.w3.org/2000/svg">
<g clip-path="url(#clip0_159_664)">
<path d="M26.4041 0.468763L14.5015 12.3726L2.59895 0.468763C2.31268 0.206768 1.93637 0.0653375 1.54842 0.0739343C1.16047 0.0825312 0.790792 0.240493 0.516402 0.514912C0.242012 0.789331 0.0840677 1.15904 0.0754718 1.54704C0.0668759 1.93503 0.208291 2.31138 0.470258 2.59768L12.3668 14.5015L0.467239 26.4023C0.321861 26.5409 0.205647 26.7071 0.125428 26.8912C0.0452083 27.0754 0.00260253 27.2737 0.000115548 27.4745C-0.00237143 27.6753 0.0353105 27.8746 0.110946 28.0607C0.186581 28.2467 0.298643 28.4158 0.440545 28.5579C0.582447 28.7 0.751325 28.8123 0.937253 28.8882C1.12318 28.9641 1.3224 29.0021 1.52321 28.9999C1.72402 28.9977 1.92237 28.9554 2.10659 28.8754C2.2908 28.7954 2.45718 28.6795 2.59593 28.5343L14.5015 16.6335L26.4041 28.5373C26.6903 28.7993 27.0667 28.9407 27.4546 28.9321C27.8426 28.9235 28.2122 28.7656 28.4866 28.4911C28.761 28.2167 28.919 27.847 28.9275 27.459C28.9361 27.071 28.7947 26.6947 28.5328 26.4084L16.6302 14.5045L28.5328 2.59768C28.6781 2.45912 28.7944 2.29289 28.8746 2.10877C28.9548 1.92465 28.9974 1.72634 28.9999 1.52551C29.0024 1.32468 28.9647 1.12539 28.8891 0.939331C28.8134 0.753276 28.7014 0.58422 28.5595 0.442102C28.4176 0.299983 28.2487 0.187669 28.0627 0.111763C27.8768 0.0358558 27.6776 -0.00211196 27.4768 9.06236e-05C27.276 0.00229321 27.0776 0.044622 26.8934 0.124589C26.7092 0.204556 26.5428 0.320546 26.4041 0.465743V0.468763Z" fill="#2E2D2D"/>
</g>
<defs>
<clipPath id="clip0_159_664">
<rect width="29" height="29" fill="white"/>
</clipPath>
</defs>
</svg>
