<svg width="27" height="20" viewBox="0 0 27 20" fill="none" xmlns="http://www.w3.org/2000/svg">
<g clip-path="url(#clip0_64_752)">
<path d="M25.195 3.99621C25.0526 3.46701 24.7736 2.98449 24.3861 2.59697C23.9986 2.20945 23.5161 1.93052 22.9869 1.78809C21.5406 1.22934 7.52938 0.95559 3.46438 1.80371C2.93509 1.9462 2.45253 2.22523 2.065 2.61286C1.67747 3.0005 1.39858 3.48314 1.25625 4.01246C0.603125 6.87684 0.55375 13.0693 1.2725 15.9981C1.41493 16.5273 1.69386 17.0098 2.08138 17.3973C2.46891 17.7849 2.95142 18.0638 3.48063 18.2062C6.345 18.8656 19.9625 18.9581 23.0031 18.2062C23.5323 18.0638 24.0148 17.7849 24.4024 17.3973C24.7899 17.0098 25.0688 16.5273 25.2113 15.9981C25.9075 12.8775 25.9569 7.06871 25.195 3.99621Z" stroke="white" stroke-linecap="round" stroke-linejoin="round"/>
<path d="M17.3544 9.99689L10.825 6.25252V13.7413L17.3544 9.99689Z" stroke="white" stroke-linecap="round" stroke-linejoin="round"/>
</g>
<defs>
<clipPath id="clip0_64_752">
<rect width="27" height="20" fill="white"/>
</clipPath>
</defs>
</svg>
