<svg width="40" height="32" viewBox="0 0 40 32" fill="none" xmlns="http://www.w3.org/2000/svg">
<path d="M20.4784 0.313721C21.5254 0.319603 24.145 0.345093 26.9293 0.456858L27.9176 0.499995C30.7195 0.631367 33.5195 0.858819 34.9097 1.24509C36.7627 1.76666 38.2176 3.28431 38.7097 5.2098C39.4941 8.26862 39.5921 14.2333 39.6039 15.6784L39.6058 15.9765V16.3176C39.5921 17.7627 39.4941 23.7294 38.7097 26.7863C38.2117 28.7176 36.7548 30.2373 34.9097 30.751C33.5195 31.1373 30.7195 31.3647 27.9176 31.4961L26.9293 31.5412C24.145 31.651 21.5254 31.6784 20.4784 31.6823L20.0176 31.6843H19.5176C17.3019 31.6706 8.03523 31.5706 5.08621 30.751C3.23523 30.2294 1.77836 28.7118 1.28621 26.7863C0.501894 23.7274 0.403855 17.7627 0.39209 16.3176V15.6784C0.403855 14.2333 0.501894 8.26666 1.28621 5.2098C1.78425 3.27843 3.24111 1.75882 5.08817 1.24705C8.03523 0.425485 17.3039 0.325485 19.5195 0.313721H20.4784ZM16.0764 9.13725V22.8627L27.8411 16L16.0764 9.13725Z" fill="#2E2E2E"/>
</svg>
