<svg width="24" height="22" viewBox="0 0 24 22" fill="none" xmlns="http://www.w3.org/2000/svg">
<g opacity="0.7" clip-path="url(#clip0_64_755)">
<path d="M22.4737 0.995421C22.2401 0.801801 21.9585 0.675001 21.6587 0.628464C21.3589 0.581928 21.052 0.617389 20.7707 0.731088L1.36066 8.56684C1.04701 8.69573 0.77997 8.91697 0.595003 9.20119C0.410036 9.48542 0.315887 9.81917 0.325055 10.1582C0.334223 10.4971 0.446274 10.8253 0.646334 11.0991C0.846393 11.3729 1.125 11.5794 1.44516 11.6912L5.63333 13.145L7.90291 20.6482C7.90725 20.6633 7.92133 20.6731 7.92783 20.6872C7.95121 20.747 7.98536 20.8021 8.02858 20.8497C8.09425 20.923 8.17902 20.9767 8.27341 21.0046C8.28425 21.0089 8.29183 21.0187 8.30266 21.0208H8.30916L8.31241 21.0219C8.39622 21.04 8.48332 21.0355 8.56483 21.0089C8.5735 21.0068 8.58216 21.0068 8.59191 21.0035C8.67018 20.976 8.74101 20.9308 8.79883 20.8713C8.80533 20.8638 8.81616 20.8627 8.82266 20.8562L12.0867 17.253L16.8502 20.9418C17.1394 21.1682 17.4958 21.2906 17.8631 21.2906C18.6582 21.2906 19.344 20.7338 19.5076 19.957L23.0414 2.60417C23.1014 2.30958 23.0802 2.00425 22.9802 1.72074C22.8803 1.43723 22.7052 1.18617 22.4737 0.994338V0.995421ZM9.087 14.5696L8.32108 18.293L6.72316 13.0085L14.6477 8.881L9.23433 14.2955C9.15937 14.3704 9.10812 14.4657 9.087 14.5696ZM18.4459 19.7393C18.4256 19.8375 18.3803 19.9288 18.3145 20.0045C18.2487 20.0802 18.1645 20.1377 18.07 20.1715C17.9778 20.207 17.878 20.2178 17.7804 20.203C17.6828 20.1882 17.5907 20.1482 17.5132 20.087L12.3532 16.0906C12.2454 16.0073 12.1101 15.9678 11.9744 15.9798C11.8386 15.9919 11.7124 16.0546 11.6209 16.1556L9.34916 18.6592L10.114 14.9466L17.9021 7.15742C17.9933 7.06592 18.0488 6.94482 18.0585 6.816C18.0683 6.68717 18.0317 6.55909 17.9554 6.45488C17.879 6.35067 17.7679 6.27718 17.6421 6.24768C17.5163 6.21818 17.3841 6.23461 17.2694 6.294L6.04283 12.1418L1.79941 10.6663C1.6869 10.6292 1.58877 10.5579 1.51868 10.4623C1.44858 10.3668 1.41001 10.2518 1.40833 10.1333C1.40293 10.0138 1.43487 9.89557 1.4997 9.79502C1.56454 9.69446 1.65906 9.61658 1.77016 9.57217L21.177 1.73642C21.2764 1.69417 21.3857 1.6805 21.4925 1.69696C21.5993 1.71342 21.6994 1.75935 21.7815 1.82959C21.8631 1.89566 21.9248 1.98312 21.9596 2.08222C21.9945 2.18131 22.001 2.28813 21.9787 2.39075L18.4459 19.7403V19.7393Z" fill="white"/>
</g>
<defs>
<clipPath id="clip0_64_755">
<rect width="24" height="22" fill="white"/>
</clipPath>
</defs>
</svg>
