<svg width="34" height="25" viewBox="0 0 34 25" fill="none" xmlns="http://www.w3.org/2000/svg">
<path d="M1.5884 21.9996H32.4217C32.7383 22.0001 33.0429 22.1207 33.274 22.337C33.5051 22.5534 33.6455 22.8493 33.6668 23.1652C33.6882 23.481 33.5889 23.7932 33.3891 24.0387C33.1892 24.2842 32.9037 24.4447 32.5901 24.4879L32.4217 24.4996H1.5884C1.26944 24.5028 0.961302 24.384 0.727091 24.1674C0.492881 23.9509 0.350316 23.653 0.328589 23.3348C0.306862 23.0165 0.407617 22.702 0.610223 22.4557C0.812829 22.2093 1.10195 22.0497 1.4184 22.0096L1.5884 21.9996ZM1.5884 11.1712H32.4217C32.7383 11.1717 33.0429 11.2923 33.274 11.5087C33.5051 11.725 33.6455 12.021 33.6668 12.3369C33.6882 12.6527 33.5889 12.9649 33.3891 13.2104C33.1892 13.4559 32.9037 13.6164 32.5901 13.6596L32.4217 13.6712H1.5884C1.26944 13.6745 0.961302 13.5557 0.727091 13.3391C0.492881 13.1226 0.350316 12.8247 0.328589 12.5064C0.306862 12.1882 0.407617 11.8737 0.610223 11.6273C0.812829 11.381 1.10195 11.2214 1.4184 11.1812L1.5884 11.1712ZM1.58673 0.337891H32.4201C32.7368 0.337988 33.0416 0.458299 33.273 0.674512C33.5045 0.890726 33.6452 1.18672 33.6668 1.50269C33.6884 1.81866 33.5892 2.13104 33.3893 2.37672C33.1895 2.6224 32.9038 2.78306 32.5901 2.82622L32.4201 2.83789H1.58673C1.27002 2.83779 0.965162 2.71748 0.733744 2.50127C0.502326 2.28506 0.361607 1.98906 0.34002 1.67309C0.318434 1.35712 0.417589 1.04474 0.617451 0.79906C0.817313 0.553382 1.10298 0.392727 1.41673 0.349558L1.58673 0.337891Z" fill="#2E2D2D"/>
</svg>
