<svg width="49" height="30" viewBox="0 0 49 30" fill="none" xmlns="http://www.w3.org/2000/svg">
<path fill-rule="evenodd" clip-rule="evenodd" d="M25.4613 25C22.8979 27.4731 19.3863 29 15.5063 29C7.63635 29 1.28192 22.718 1.28192 15C1.28192 7.28196 7.63635 1 15.5063 1C19.3863 1 22.8979 2.5269 25.4613 5H26.8541C24.0664 1.93125 20.0153 0 15.5063 0C7.09812 0 0.281921 6.71573 0.281921 15C0.281921 23.2843 7.09812 30 15.5063 30C20.0153 30 24.0664 28.0687 26.8541 25H25.4613ZM18.4741 15.5C18.2195 16.9189 16.8997 18 15.3099 18C13.5378 18 12.1013 16.6569 12.1013 15C12.1013 13.3431 13.5378 12 15.3099 12C16.8997 12 18.2195 13.0811 18.4741 14.5H47.2581L44.9297 12.1716C44.7345 11.9763 44.7345 11.6597 44.9297 11.4645C45.125 11.2692 45.4416 11.2692 45.6368 11.4645L48.8188 14.6464C49.0141 14.8417 49.0141 15.1583 48.8188 15.3536L45.6368 18.5355C45.4416 18.7308 45.125 18.7308 44.9297 18.5355C44.7345 18.3403 44.7345 18.0237 44.9297 17.8284L47.2581 15.5H18.4741Z" fill="black"/>
</svg>
