<svg width="49" height="30" viewBox="0 0 49 30" fill="none" xmlns="http://www.w3.org/2000/svg">
<path fill-rule="evenodd" clip-rule="evenodd" d="M23.5386 5C26.102 2.5269 29.6136 1 33.4936 1C41.3636 1 47.718 7.28196 47.718 15C47.718 22.718 41.3636 29 33.4936 29C29.6136 29 26.102 27.4731 23.5386 25L22.1458 25C24.9335 28.0687 28.9847 30 33.4936 30C41.9018 30 48.718 23.2843 48.718 15C48.718 6.71573 41.9018 5.57153e-07 33.4936 1.24444e-06C28.9847 1.613e-06 24.9335 1.93126 22.1458 5L23.5386 5ZM30.5258 14.5C30.7804 13.0811 32.1002 12 33.6901 12C35.4621 12 36.8986 13.3431 36.8986 15C36.8986 16.6569 35.4621 18 33.6901 18C32.1002 18 30.7804 16.9189 30.5258 15.5L1.7418 15.5L4.07022 17.8284C4.26549 18.0237 4.26549 18.3403 4.07022 18.5355C3.87496 18.7308 3.55838 18.7308 3.36312 18.5355L0.181136 15.3536C-0.0141272 15.1583 -0.0141272 14.8417 0.181136 14.6465L3.36312 11.4645C3.55838 11.2692 3.87496 11.2692 4.07022 11.4645C4.26549 11.6597 4.26549 11.9763 4.07022 12.1716L1.7418 14.5L30.5258 14.5Z" fill="black"/>
</svg>
